<svg width="40" height="40" viewBox="0 0 40 40" fill="none" xmlns="http://www.w3.org/2000/svg">
<path d="M12.3974 25.0964C12.4356 24.7518 12.4548 24.5795 12.5069 24.4185C12.5532 24.2756 12.6185 24.1396 12.7012 24.0142C12.7944 23.8729 12.9169 23.7504 13.1621 23.5052L24.1673 12.5C25.0878 11.5795 26.5802 11.5795 27.5007 12.5C28.4211 13.4205 28.4211 14.9128 27.5007 15.8333L16.4954 26.8386C16.2503 27.0837 16.1277 27.2063 15.9864 27.2995C15.861 27.3821 15.7251 27.4475 15.5822 27.4937C15.4212 27.5459 15.2489 27.565 14.9043 27.6033L12.084 27.9167L12.3974 25.0964Z" stroke="#475467" stroke-width="1.66667" stroke-linecap="round" stroke-linejoin="round"/>
</svg>
