<svg width="24" height="24" viewBox="0 0 24 24" fill="none" xmlns="http://www.w3.org/2000/svg">
<path d="M9.00094 17.7504C8.89094 17.7504 8.77094 17.7204 8.67094 17.6704C7.90094 17.2804 7.24094 16.7004 6.76094 15.9804C6.36094 15.3804 6.36094 14.6104 6.76094 14.0104C7.23897 13.2924 7.89775 12.7129 8.67094 12.3304C9.04094 12.1404 9.49094 12.3004 9.68094 12.6704C9.87094 13.0404 9.72094 13.4904 9.34094 13.6804C8.80094 13.9504 8.34094 14.3604 8.01094 14.8604C7.98161 14.9068 7.96604 14.9605 7.96604 15.0154C7.96604 15.0703 7.98161 15.124 8.01094 15.1704C8.34094 15.6704 8.80094 16.0804 9.34094 16.3504C9.71094 16.5404 9.86094 16.9904 9.68094 17.3604C9.54094 17.6004 9.27094 17.7504 9.00094 17.7504Z" fill="black" fill-opacity="0.7"/>
<path d="M15.2125 17.7504C14.9325 17.7504 14.6725 17.6004 14.5425 17.3404C14.4973 17.252 14.4703 17.1554 14.463 17.0564C14.4556 16.9574 14.4682 16.8579 14.4999 16.7638C14.5315 16.6697 14.5817 16.5829 14.6474 16.5085C14.7131 16.4341 14.793 16.3735 14.8825 16.3304C15.4225 16.0604 15.8825 15.6504 16.2125 15.1504C16.2418 15.104 16.2574 15.0503 16.2574 14.9954C16.2574 14.9405 16.2418 14.8868 16.2125 14.8404C15.8825 14.3404 15.4225 13.9304 14.8825 13.6604C14.7052 13.5697 14.5705 13.4133 14.5069 13.2246C14.4434 13.0359 14.4562 12.8298 14.5425 12.6504C14.7325 12.2804 15.1825 12.1304 15.5525 12.3104C16.3225 12.7004 16.9825 13.2804 17.4625 14.0004C17.8625 14.6004 17.8625 15.3704 17.4625 15.9704C16.9844 16.6885 16.3257 17.2679 15.5525 17.6504C15.4504 17.7141 15.3328 17.7487 15.2125 17.7504Z" fill="black" fill-opacity="0.7"/>
<path d="M15 22.75H9C3.57 22.75 1.25 20.43 1.25 15V9C1.25 3.57 3.57 1.25 9 1.25H15C20.43 1.25 22.75 3.57 22.75 9V15C22.75 20.43 20.43 22.75 15 22.75ZM9 2.75C4.39 2.75 2.75 4.39 2.75 9V15C2.75 19.61 4.39 21.25 9 21.25H15C19.61 21.25 21.25 19.61 21.25 15V9C21.25 4.39 19.61 2.75 15 2.75H9Z" fill="black" fill-opacity="0.7"/>
<path d="M2.22656 8.76C2.02765 8.76 1.83688 8.68098 1.69623 8.54033C1.55558 8.39968 1.47656 8.20891 1.47656 8.01C1.47656 7.81109 1.55558 7.62032 1.69623 7.47967C1.83688 7.33902 2.02765 7.26 2.22656 7.26L21.4466 7.25C21.6455 7.25 21.8362 7.32902 21.9769 7.46967C22.1175 7.61032 22.1966 7.80109 22.1966 8C22.1966 8.19891 22.1175 8.38968 21.9769 8.53033C21.8362 8.67098 21.6455 8.75 21.4466 8.75L2.22656 8.76Z" fill="black" fill-opacity="0.7"/>
</svg>
