<svg width="20" height="22" viewBox="0 0 20 22" fill="none" xmlns="http://www.w3.org/2000/svg">
<path d="M9.99844 21.7575C8.90844 21.7575 7.82844 21.4375 6.97844 20.8075L2.67844 17.5975C1.53844 16.7475 0.648438 14.9675 0.648438 13.5575V6.1175C0.648438 4.5775 1.77844 2.9375 3.22844 2.3975L8.21844 0.5275C9.20844 0.1575 10.7684 0.1575 11.7584 0.5275L16.7484 2.3975C18.1984 2.9375 19.3284 4.5775 19.3284 6.1175V13.5475C19.3284 14.9675 18.4384 16.7375 17.2984 17.5875L12.9984 20.7975C12.1684 21.4375 11.0884 21.7575 9.99844 21.7575ZM8.74844 1.9375L3.75844 3.8075C2.90844 4.1275 2.15844 5.2075 2.15844 6.1275V13.5575C2.15844 14.5075 2.82844 15.8375 3.57844 16.3975L7.87844 19.6075C9.02844 20.4675 10.9684 20.4675 12.1284 19.6075L16.4284 16.3975C17.1884 15.8275 17.8484 14.5075 17.8484 13.5575V6.1175C17.8484 5.2075 17.0984 4.1275 16.2484 3.7975L11.2584 1.9275C10.5784 1.6875 9.41844 1.6875 8.74844 1.9375Z" fill="black" fill-opacity="0.7"/>
<path d="M8.65458 13.2272C8.46458 13.2272 8.27458 13.1572 8.12458 13.0072L6.51458 11.3972C6.3751 11.256 6.29688 11.0656 6.29688 10.8672C6.29688 10.6688 6.3751 10.4783 6.51458 10.3372C6.80458 10.0472 7.28458 10.0472 7.57458 10.3372L8.65458 11.4172L12.4246 7.64719C12.7146 7.35719 13.1946 7.35719 13.4846 7.64719C13.7746 7.93719 13.7746 8.41719 13.4846 8.70719L9.18458 13.0072C9.03458 13.1572 8.84458 13.2272 8.65458 13.2272Z" fill="black" fill-opacity="0.7"/>
</svg>
