<svg width="27" height="24" viewBox="0 0 27 24" fill="none" xmlns="http://www.w3.org/2000/svg">
<g clip-path="url(#clip0_51_16137)">
<path d="M24.9402 0.793091H1.46254C1.09281 0.793091 0.793091 1.09281 0.793091 1.46254V17.3055C0.793091 17.6752 1.09281 17.9749 1.46254 17.9749H24.9402C25.3099 17.9749 25.6096 17.6752 25.6096 17.3055V1.46254C25.6096 1.09281 25.3099 0.793091 24.9402 0.793091Z" fill="white" stroke="#4D4D4D" stroke-miterlimit="10"/>
<path d="M18.1388 21.5184H8.26549C8.02293 21.5184 7.82629 21.715 7.82629 21.9576V23.5608C7.82629 23.8034 8.02293 24 8.26549 24H18.1388C18.3814 24 18.578 23.8034 18.578 23.5608V21.9576C18.578 21.715 18.3814 21.5184 18.1388 21.5184Z" fill="#4D4D4D"/>
<path d="M15.7168 17.9196H10.6874C10.406 17.9196 10.1779 18.1477 10.1779 18.4291V23.3455C10.1779 23.6269 10.406 23.8551 10.6874 23.8551H15.7168C15.9982 23.8551 16.2264 23.6269 16.2264 23.3455V18.4291C16.2264 18.1477 15.9982 17.9196 15.7168 17.9196Z" fill="#4D4D4D"/>
<path d="M13.2014 19.6654C13.6395 19.6654 13.9945 19.3103 13.9945 18.8723C13.9945 18.4343 13.6395 18.0792 13.2014 18.0792C12.7634 18.0792 12.4083 18.4343 12.4083 18.8723C12.4083 19.3103 12.7634 19.6654 13.2014 19.6654Z" fill="white"/>
<path d="M14.4063 11.357C14.3466 11.3144 14.2869 11.2739 14.2293 11.2355C14.2421 11.1907 14.2527 11.1481 14.2634 11.1076C14.2869 11.0287 14.2975 10.9605 14.3082 10.9136C14.3188 10.8667 14.3231 10.8389 14.3231 10.8389C14.3231 10.8389 14.3274 10.8112 14.3338 10.7643C14.3402 10.7174 14.353 10.6492 14.3615 10.5661C14.3657 10.5255 14.37 10.4808 14.3743 10.436C14.4425 10.4211 14.5129 10.404 14.5832 10.3848C14.7495 10.3422 14.9158 10.291 15.0373 10.2505C15.1589 10.21 15.242 10.178 15.242 10.178C15.242 10.178 15.242 10.146 15.242 10.0991C15.242 10.0757 15.242 10.048 15.242 10.0181C15.242 9.98828 15.2399 9.9563 15.2377 9.92432C15.2377 9.89234 15.2356 9.86036 15.2335 9.83051C15.2335 9.81559 15.2335 9.80066 15.2313 9.78787C15.2313 9.77508 15.2292 9.76228 15.2271 9.74949C15.2228 9.70259 15.2185 9.67061 15.2185 9.67061C15.2185 9.67061 15.1354 9.64716 15.0096 9.61731C14.9776 9.61091 14.9435 9.60238 14.9073 9.59386C14.871 9.58533 14.8327 9.57893 14.7921 9.5704C14.7133 9.55335 14.628 9.53842 14.5427 9.52563C14.4702 9.51284 14.3977 9.50218 14.3295 9.49365C14.3231 9.44675 14.3124 9.40411 14.3039 9.36573C14.289 9.28472 14.2698 9.21862 14.2591 9.17172C14.2464 9.12481 14.24 9.09923 14.24 9.09923C14.24 9.09923 14.2314 9.07365 14.2186 9.02674C14.2037 8.97984 14.1867 8.91375 14.1568 8.83699C14.1504 8.81781 14.1419 8.79649 14.1355 8.7773C14.1291 8.75598 14.1206 8.73679 14.112 8.71547C14.1653 8.67283 14.2229 8.62593 14.2783 8.57902C14.4084 8.46816 14.5363 8.3509 14.628 8.25922C14.7197 8.16968 14.7815 8.10572 14.7815 8.10572C14.7815 8.10572 14.7687 8.078 14.7474 8.03323C14.7261 7.99059 14.6962 7.93516 14.6664 7.87759C14.6514 7.84987 14.6365 7.82216 14.6216 7.79657C14.6067 7.77099 14.5917 7.74754 14.5811 7.72622C14.5576 7.68571 14.5406 7.65799 14.5406 7.65799C14.5406 7.65799 14.5192 7.66226 14.483 7.66865C14.4468 7.67505 14.3935 7.68571 14.3295 7.70063C14.2016 7.72835 14.0353 7.77099 13.8711 7.81789C13.8008 7.83708 13.7325 7.86054 13.6643 7.88186C13.6366 7.84348 13.611 7.80724 13.5876 7.77525C13.5385 7.70916 13.4938 7.65799 13.4639 7.61962C13.449 7.60043 13.4362 7.58764 13.4277 7.57698C13.4191 7.56632 13.4149 7.56205 13.4149 7.56205C13.4149 7.56205 13.3957 7.54073 13.3637 7.50449C13.3339 7.46825 13.2827 7.41921 13.2251 7.35951C13.1953 7.3318 13.1654 7.29982 13.1313 7.26784C13.1612 7.20601 13.1931 7.13992 13.223 7.07169C13.2592 6.99281 13.2912 6.91392 13.3211 6.8393C13.3509 6.76468 13.3786 6.69433 13.3999 6.6325C13.4447 6.51097 13.4724 6.42783 13.4724 6.42783C13.4724 6.42783 13.466 6.42356 13.4554 6.4129C13.4447 6.40437 13.4277 6.39158 13.4106 6.37666C13.3722 6.34681 13.3211 6.30843 13.272 6.27006C13.2187 6.23381 13.1676 6.19757 13.127 6.16985C13.1079 6.15706 13.0908 6.14427 13.0801 6.13787C13.0674 6.13148 13.061 6.12721 13.061 6.12721C13.061 6.12721 12.9906 6.17838 12.8883 6.2594C12.8371 6.29991 12.7774 6.34681 12.7156 6.39798C12.6537 6.44915 12.5898 6.50458 12.5258 6.56428C12.4704 6.61331 12.4171 6.66448 12.3681 6.71138C12.3275 6.68793 12.2892 6.66874 12.2529 6.64956C12.2167 6.6325 12.1826 6.61544 12.1527 6.60052C12.1378 6.59412 12.1229 6.5856 12.1101 6.5792C12.0973 6.5728 12.0845 6.56854 12.0738 6.56428C12.0291 6.54509 12.0035 6.53443 12.0035 6.53443C12.0035 6.53443 11.9779 6.52377 11.9331 6.50458C11.8884 6.48752 11.8244 6.46407 11.7455 6.43422C11.7071 6.42143 11.6645 6.40864 11.6197 6.39371C11.6197 6.32336 11.6197 6.25087 11.6176 6.17625C11.6112 6.00569 11.5984 5.83513 11.5856 5.70508C11.5728 5.57502 11.5622 5.48761 11.5622 5.48761C11.5622 5.48761 11.5536 5.48548 11.5408 5.48335C11.528 5.48122 11.5089 5.47695 11.4854 5.47056C11.4385 5.4599 11.3767 5.4471 11.3148 5.43431C11.253 5.42365 11.1891 5.41512 11.1421 5.4066C11.1187 5.40233 11.0995 5.4002 11.0846 5.39807C11.0718 5.39594 11.0633 5.39594 11.0633 5.39594C11.0633 5.39594 11.0228 5.47269 10.9652 5.58995C10.9076 5.70721 10.8351 5.86284 10.7712 6.02061C10.7435 6.08884 10.7157 6.15706 10.6923 6.22315C10.6454 6.22102 10.6028 6.21889 10.5601 6.21676C10.477 6.21676 10.4087 6.21676 10.3618 6.21676C10.3128 6.21889 10.2872 6.22102 10.2872 6.22102C10.2872 6.22102 10.2595 6.22102 10.2126 6.22529C10.1998 6.22529 10.187 6.22529 10.1721 6.22742C10.1572 6.22742 10.1422 6.22955 10.1252 6.23168C10.0911 6.23595 10.0548 6.23808 10.0122 6.24234C9.97168 6.24661 9.92904 6.253 9.88213 6.2594C9.85229 6.19757 9.82031 6.13148 9.78619 6.06539C9.74569 5.98863 9.70518 5.91401 9.6668 5.84366C9.62629 5.7733 9.58792 5.70934 9.55381 5.65391C9.48558 5.54304 9.43868 5.46842 9.43868 5.46842C9.43868 5.46842 9.43015 5.46842 9.41736 5.47269C9.40456 5.47695 9.38538 5.48122 9.36192 5.48761C9.31502 5.49827 9.25319 5.51533 9.19136 5.53025C9.12954 5.54944 9.06984 5.5665 9.02294 5.58142C8.99948 5.58782 8.9803 5.59421 8.9675 5.59848C8.95471 5.60274 8.94618 5.60487 8.94618 5.60487C8.94618 5.60487 8.94192 5.69228 8.94192 5.82234C8.94192 5.88843 8.94192 5.96305 8.94192 6.04407C8.94192 6.12508 8.94618 6.21036 8.95258 6.29564C8.95684 6.36813 8.96324 6.44275 8.96964 6.51097C8.92699 6.52803 8.88649 6.54509 8.84811 6.56214C8.77349 6.59839 8.71166 6.6261 8.66902 6.64956C8.62638 6.67301 8.60293 6.6858 8.60293 6.6858C8.60293 6.6858 8.59653 6.69006 8.58587 6.69433C8.57521 6.70072 8.55816 6.70925 8.53684 6.71991C8.49633 6.7455 8.43663 6.77961 8.36628 6.82225C8.33217 6.84357 8.29592 6.86915 8.25754 6.89474C8.20211 6.8521 8.14455 6.80519 8.08698 6.76255C7.95054 6.66022 7.80769 6.56214 7.69896 6.49179C7.64353 6.45554 7.59876 6.42783 7.56677 6.40864C7.53479 6.38945 7.51561 6.37666 7.51561 6.37666C7.51561 6.37666 7.49002 6.39585 7.45378 6.42569C7.43459 6.44062 7.41327 6.45767 7.38982 6.47686C7.36637 6.49605 7.34291 6.51737 7.31946 6.53869C7.27256 6.58133 7.22352 6.62184 7.18941 6.65595C7.1553 6.69006 7.13185 6.71138 7.13185 6.71138C7.13185 6.71138 7.16596 6.7924 7.22139 6.90966C7.27469 7.02692 7.35571 7.18256 7.43885 7.3318C7.4751 7.39576 7.51134 7.45972 7.54545 7.51728C7.53053 7.53434 7.51561 7.55139 7.50068 7.56845C7.48576 7.58551 7.47297 7.60256 7.46017 7.61749C7.40687 7.67931 7.36423 7.73475 7.33652 7.77312C7.30667 7.8115 7.28961 7.83282 7.28961 7.83282C7.28961 7.83282 7.27469 7.85627 7.24697 7.89465C7.21926 7.93515 7.17875 7.99059 7.13824 8.06094C7.11692 8.09506 7.09347 8.13343 7.07002 8.17394C7.00179 8.15902 6.93144 8.14409 6.85895 8.12917C6.7758 8.11211 6.69052 8.09719 6.6095 8.0844C6.569 8.078 6.53062 8.0716 6.49437 8.06734C6.45813 8.06308 6.42402 8.05881 6.39204 8.05455C6.26412 8.03749 6.17671 8.0311 6.17671 8.0311C6.17671 8.0311 6.16178 8.05881 6.14259 8.10358C6.13833 8.11424 6.13193 8.12704 6.12554 8.1377C6.11914 8.15049 6.11488 8.16328 6.10848 8.17607C6.09569 8.20379 6.08503 8.23364 6.07224 8.26135C6.05945 8.2912 6.04665 8.31892 6.03599 8.34663C6.02533 8.37435 6.01467 8.39993 6.00615 8.42338C5.98909 8.46816 5.97843 8.49801 5.97843 8.49801C5.97843 8.49801 6.04452 8.55557 6.14473 8.63658C6.24493 8.7176 6.38351 8.8242 6.52422 8.92227C6.58392 8.96491 6.64362 9.00542 6.70118 9.0438C6.68839 9.08857 6.67773 9.13121 6.66707 9.17172C6.64362 9.2506 6.63296 9.31883 6.6223 9.36573C6.61164 9.41264 6.60737 9.44035 6.60737 9.44035C6.60737 9.44035 6.60311 9.46807 6.59671 9.51497C6.59032 9.56188 6.57752 9.6301 6.569 9.71325C6.56473 9.75376 6.56047 9.79853 6.5562 9.8433C6.48798 9.85822 6.41762 9.87528 6.34727 9.89447C6.18097 9.93711 6.01467 9.98828 5.89315 10.0288C5.77162 10.0693 5.68848 10.1013 5.68848 10.1013C5.68848 10.1013 5.68848 10.1333 5.68848 10.1802C5.68848 10.2036 5.68848 10.2313 5.68848 10.2612C5.68848 10.291 5.69061 10.323 5.69274 10.355C5.69274 10.387 5.69487 10.4189 5.697 10.4488C5.697 10.4637 5.697 10.4786 5.69914 10.4914C5.69914 10.5042 5.70127 10.517 5.7034 10.5298C5.70766 10.5767 5.71193 10.6087 5.71193 10.6087C5.71193 10.6087 5.79508 10.6321 5.92087 10.662C5.95285 10.6684 5.98696 10.6769 6.0232 10.6854C6.05945 10.694 6.09782 10.7004 6.13833 10.7089C6.21721 10.726 6.30249 10.7409 6.38777 10.7537C6.46026 10.7665 6.53275 10.7771 6.60098 10.7856C6.60737 10.8326 6.61803 10.8752 6.62656 10.9136C6.64148 10.9946 6.66067 11.0607 6.67133 11.1076C6.68412 11.1545 6.69052 11.1801 6.69052 11.1801C6.69052 11.1801 6.69905 11.2057 6.71184 11.2526C6.72676 11.2995 6.74382 11.3656 6.77367 11.4423C6.78006 11.4615 6.78859 11.4828 6.79499 11.502C6.80138 11.5233 6.80991 11.5425 6.81844 11.5638C6.76514 11.6065 6.70758 11.6534 6.65214 11.7003C6.52209 11.8111 6.39417 11.9284 6.30249 12.0201C6.21082 12.1096 6.14899 12.1736 6.14899 12.1736C6.14899 12.1736 6.16178 12.2013 6.1831 12.2461C6.20442 12.2887 6.23427 12.3441 6.26412 12.4017C6.27904 12.4294 6.29397 12.4571 6.30889 12.4827C6.32381 12.5083 6.33874 12.5318 6.3494 12.5531C6.37285 12.5936 6.38991 12.6213 6.38991 12.6213C6.38991 12.6213 6.41123 12.617 6.44747 12.6106C6.48371 12.6043 6.53702 12.5936 6.60098 12.5787C6.7289 12.551 6.89519 12.5083 7.05936 12.4614C7.12971 12.4422 7.19794 12.4188 7.26616 12.3974C7.29388 12.4358 7.31946 12.4721 7.34291 12.504C7.39195 12.5701 7.43672 12.6213 7.46657 12.6597C7.48149 12.6789 7.49429 12.6917 7.50281 12.7023C7.51134 12.713 7.51561 12.7172 7.51561 12.7172C7.51561 12.7172 7.53479 12.7386 7.56677 12.7748C7.59662 12.8111 7.64779 12.8601 7.70535 12.9198C7.7352 12.9475 7.76505 12.9795 7.79916 13.0115C7.76932 13.0733 7.73734 13.1394 7.70749 13.2076C7.67124 13.2865 7.63926 13.3654 7.60941 13.44C7.57957 13.5146 7.55185 13.585 7.53053 13.6468C7.48576 13.7683 7.45804 13.8515 7.45804 13.8515C7.45804 13.8515 7.46444 13.8557 7.4751 13.8664C7.48576 13.8749 7.50281 13.8877 7.51987 13.9026C7.55825 13.9325 7.60941 13.9709 7.65845 14.0092C7.71175 14.0455 7.76292 14.0817 7.80343 14.1094C7.82262 14.1222 7.83967 14.135 7.85033 14.1414C7.86312 14.1478 7.86952 14.1521 7.86952 14.1521C7.86952 14.1521 7.93988 14.1009 8.04221 14.0199C8.09338 13.9794 8.15308 13.9325 8.2149 13.8813C8.27673 13.8302 8.34069 13.7747 8.40465 13.715C8.46009 13.666 8.51339 13.6148 8.56242 13.5679C8.60293 13.5914 8.64131 13.6106 8.67755 13.6297C8.71379 13.6489 8.74791 13.6639 8.77775 13.6788C8.79268 13.6852 8.8076 13.6937 8.82039 13.7001C8.83319 13.7065 8.84598 13.7108 8.85664 13.715C8.90141 13.7342 8.92699 13.7449 8.92699 13.7449C8.92699 13.7449 8.95258 13.7555 8.99735 13.7747C9.04212 13.7918 9.10608 13.8152 9.18497 13.8451C9.22334 13.8579 9.26598 13.8707 9.31076 13.8856C9.31076 13.9559 9.31076 14.0284 9.31289 14.1031C9.31928 14.2736 9.33208 14.4442 9.34487 14.5742C9.35766 14.7043 9.36832 14.7917 9.36832 14.7917C9.36832 14.7917 9.37685 14.7938 9.38964 14.796C9.40243 14.7981 9.42162 14.8023 9.44507 14.8087C9.49198 14.8173 9.5538 14.8301 9.61563 14.8429C9.67746 14.8535 9.74142 14.862 9.78833 14.8706C9.81178 14.8748 9.83097 14.877 9.84589 14.8791C9.85868 14.8812 9.86721 14.8812 9.86721 14.8812C9.86721 14.8812 9.90772 14.8045 9.96528 14.6872C10.0228 14.57 10.0953 14.4143 10.1593 14.2566C10.187 14.1883 10.2147 14.1201 10.2382 14.054C10.2851 14.0561 10.3277 14.0583 10.3704 14.0604C10.4535 14.0604 10.5217 14.0604 10.5686 14.0604C10.6177 14.0583 10.6433 14.0561 10.6433 14.0561C10.6433 14.0561 10.671 14.0561 10.7179 14.0519C10.7307 14.0519 10.7435 14.0519 10.7584 14.0498C10.7733 14.0498 10.7882 14.0476 10.8053 14.0455C10.8394 14.0412 10.8756 14.0391 10.9183 14.0348C10.9588 14.0306 11.0014 14.0242 11.0483 14.0178C11.0782 14.0796 11.1102 14.1457 11.1443 14.2118C11.1848 14.2885 11.2253 14.3632 11.2637 14.4335C11.3042 14.5039 11.3426 14.5678 11.3767 14.6233C11.4449 14.7341 11.4918 14.8087 11.4918 14.8087C11.4918 14.8087 11.5003 14.8087 11.5131 14.8045C11.5259 14.8002 11.5451 14.796 11.5686 14.7896C11.6155 14.7789 11.6773 14.7618 11.7391 14.7469C11.8009 14.7277 11.8606 14.7107 11.9075 14.6957C11.931 14.6894 11.9502 14.683 11.963 14.6787C11.9758 14.6744 11.9843 14.6723 11.9843 14.6723C11.9843 14.6723 11.9886 14.5849 11.9886 14.4548C11.9886 14.3909 11.9886 14.3141 11.9886 14.2331C11.9886 14.1521 11.9843 14.0668 11.9779 13.9815C11.9736 13.909 11.9672 13.8344 11.9608 13.7662C12.0035 13.7491 12.044 13.7321 12.0824 13.715C12.157 13.6788 12.2188 13.6511 12.2615 13.6276C12.3041 13.6042 12.3275 13.5914 12.3275 13.5914C12.3275 13.5914 12.3339 13.5871 12.3446 13.5828C12.3553 13.5764 12.3723 13.5679 12.3936 13.5573C12.4341 13.5317 12.4938 13.4997 12.5642 13.4549C12.5983 13.4336 12.6346 13.408 12.6729 13.3824C12.7284 13.4272 12.7859 13.472 12.8435 13.5146C12.9799 13.617 13.1228 13.715 13.2315 13.7854C13.2869 13.8216 13.3317 13.8493 13.3637 13.8685C13.3957 13.8877 13.4149 13.9005 13.4149 13.9005C13.4149 13.9005 13.4405 13.8813 13.4767 13.8515C13.4959 13.8366 13.5172 13.8195 13.5407 13.8003C13.5641 13.7811 13.5876 13.7598 13.611 13.7385C13.6579 13.6958 13.707 13.6553 13.7411 13.6212C13.7752 13.5871 13.7986 13.5658 13.7986 13.5658C13.7986 13.5658 13.7645 13.4848 13.7091 13.3675C13.6558 13.2502 13.5748 13.0946 13.4916 12.9454C13.4554 12.8814 13.4191 12.8175 13.385 12.7599C13.3999 12.7428 13.4149 12.7258 13.4298 12.7087C13.4447 12.6917 13.4575 12.6746 13.4703 12.6597C13.5236 12.5979 13.5662 12.5424 13.594 12.504C13.6238 12.4657 13.6409 12.4443 13.6409 12.4443C13.6409 12.4443 13.6558 12.4209 13.6835 12.3825C13.7112 12.342 13.7517 12.2866 13.7922 12.2162C13.8136 12.1821 13.837 12.1437 13.8605 12.1032C13.9287 12.1182 13.999 12.1331 14.0715 12.148C14.1547 12.1651 14.24 12.18 14.321 12.1928C14.3615 12.1992 14.3999 12.2056 14.4361 12.2098C14.4723 12.2141 14.5065 12.2184 14.5384 12.2226C14.6664 12.2397 14.7538 12.2461 14.7538 12.2461C14.7538 12.2461 14.7687 12.2184 14.7879 12.1736C14.7921 12.1629 14.7985 12.1523 14.8049 12.1395C14.8113 12.1267 14.8156 12.1139 14.822 12.099C14.8348 12.0712 14.8454 12.0414 14.8582 12.0137C14.871 11.9838 14.8838 11.9561 14.8945 11.9284C14.9051 11.9007 14.9158 11.8751 14.9243 11.8517C14.9414 11.8069 14.952 11.777 14.952 11.777C14.952 11.777 14.886 11.7195 14.7857 11.6385C14.6855 11.5574 14.547 11.4508 14.4063 11.3528V11.357ZM13.0077 12.0649C12.9842 12.0968 12.9501 12.1416 12.9075 12.1906C12.8968 12.2034 12.8861 12.2162 12.8733 12.2311C12.8627 12.2461 12.8499 12.2589 12.8371 12.2738C12.8115 12.3015 12.7838 12.3314 12.7539 12.3633C12.7241 12.3932 12.6921 12.423 12.6623 12.4529L12.6388 12.4763L12.6132 12.4976C12.5962 12.5126 12.5791 12.5275 12.5621 12.5424C12.4277 12.6597 12.2828 12.7663 12.1676 12.8366C12.1101 12.8729 12.061 12.9006 12.0291 12.9198C12.012 12.9304 11.9992 12.9368 11.9886 12.9411C11.98 12.9454 11.9736 12.9496 11.9736 12.9496C11.9736 12.9496 11.9544 12.9603 11.9182 12.9795C11.8841 12.9987 11.8329 13.02 11.7732 13.0498C11.6517 13.1053 11.4833 13.1692 11.3127 13.2183C11.14 13.2652 10.9631 13.295 10.8309 13.3121C10.7968 13.3163 10.7669 13.3185 10.7392 13.3206C10.7264 13.3206 10.7136 13.3227 10.7008 13.3249C10.688 13.3249 10.6774 13.3249 10.6688 13.3249C10.6305 13.3249 10.607 13.327 10.607 13.327C10.607 13.327 10.5857 13.327 10.5452 13.3291C10.5068 13.3291 10.4492 13.3291 10.3832 13.3291C10.2488 13.3249 10.0698 13.3099 9.89279 13.278C9.71584 13.246 9.54314 13.1948 9.41736 13.1543C9.35553 13.1309 9.30223 13.1117 9.26598 13.0967C9.22974 13.0818 9.21055 13.0733 9.21055 13.0733C9.21055 13.0733 9.18923 13.0648 9.15512 13.0498C9.14659 13.0456 9.13593 13.0413 9.12527 13.037C9.11461 13.0328 9.10395 13.0264 9.09116 13.02C9.06771 13.0072 9.03999 12.9944 9.01014 12.9795C8.89075 12.9177 8.73725 12.8281 8.59227 12.7236C8.44729 12.6192 8.31511 12.4977 8.21917 12.4038C8.17226 12.3548 8.13176 12.3164 8.1083 12.2866C8.08272 12.2567 8.0678 12.2397 8.0678 12.2397C8.0678 12.2397 8.06353 12.2354 8.05714 12.2269C8.05074 12.2184 8.04008 12.2077 8.02729 12.1928C8.00384 12.1608 7.96759 12.1182 7.92708 12.0649C7.84607 11.9583 7.74586 11.809 7.66058 11.6512C7.64992 11.6321 7.63926 11.6107 7.6286 11.5915L7.61368 11.5617L7.59875 11.5319C7.57957 11.4913 7.56038 11.453 7.54332 11.4146C7.5284 11.3762 7.51134 11.3378 7.49642 11.3037C7.48789 11.2867 7.48149 11.2696 7.47723 11.2504C7.47083 11.2334 7.46444 11.2163 7.46017 11.2014C7.43672 11.1396 7.4218 11.0841 7.40901 11.0479C7.39835 11.0095 7.39195 10.9882 7.39195 10.9882C7.39195 10.9882 7.38555 10.9669 7.37703 10.9285C7.3685 10.8901 7.35144 10.8368 7.34078 10.7707C7.33439 10.7387 7.32586 10.7025 7.31946 10.6641C7.31307 10.6257 7.3088 10.5852 7.30241 10.5447C7.29388 10.4616 7.28322 10.372 7.28109 10.2825C7.28109 10.2612 7.27895 10.2377 7.27682 10.2164C7.27682 10.1951 7.27682 10.1716 7.27682 10.1503C7.27682 10.129 7.27682 10.1055 7.27682 10.0842C7.27682 10.0736 7.27682 10.0629 7.27682 10.0522C7.27682 10.0416 7.27682 10.0309 7.27682 10.0203C7.27895 9.97762 7.28109 9.93711 7.28322 9.89873C7.28748 9.86036 7.29175 9.82411 7.29388 9.79C7.29814 9.72391 7.31093 9.66848 7.3152 9.62797C7.32159 9.58959 7.32373 9.56614 7.32373 9.56614C7.32373 9.56614 7.32799 9.54482 7.33652 9.50644C7.34505 9.46807 7.35357 9.41264 7.37276 9.34868C7.38129 9.3167 7.38982 9.28045 7.40048 9.24421C7.41114 9.20796 7.42393 9.16959 7.43672 9.12908C7.43885 9.11842 7.44312 9.10989 7.44525 9.09923C7.44951 9.08857 7.45165 9.08004 7.45591 9.06938C7.46444 9.05019 7.47083 9.02887 7.47936 9.00755C7.48789 8.98623 7.49429 8.96705 7.50281 8.94573C7.51134 8.92441 7.51987 8.90522 7.5284 8.8839C7.56251 8.80075 7.60302 8.72187 7.63926 8.64725C7.66058 8.611 7.67977 8.57476 7.69683 8.54065C7.71601 8.50653 7.7352 8.47669 7.75226 8.44897C7.78637 8.3914 7.82048 8.34663 7.8418 8.31465C7.86312 8.28267 7.87592 8.26348 7.87592 8.26348C7.87592 8.26348 7.88871 8.24643 7.91429 8.21445C7.93774 8.18247 7.97186 8.1377 8.0145 8.08866C8.02516 8.07587 8.03582 8.06308 8.04861 8.04815C8.05927 8.03323 8.07206 8.02044 8.08485 8.00551C8.11044 7.9778 8.13815 7.94795 8.168 7.91597C8.19785 7.88612 8.22983 7.85627 8.25968 7.82642L8.28313 7.80297L8.30871 7.78165C8.32577 7.76673 8.34282 7.7518 8.35988 7.73688C8.4942 7.61962 8.63917 7.51302 8.7543 7.44266C8.81187 7.40642 8.8609 7.3787 8.89288 7.35951C8.90994 7.34885 8.92273 7.34246 8.93339 7.33819C8.94192 7.33393 8.94832 7.32967 8.94832 7.32967C8.94832 7.32967 8.9675 7.31901 9.00375 7.29982C9.03786 7.28063 9.08903 7.25931 9.14872 7.22946C9.27025 7.17403 9.43868 7.11007 9.60924 7.06103C9.78193 7.01413 9.95889 6.98428 10.0911 6.96722C10.1252 6.96296 10.155 6.96083 10.1827 6.9587C10.1955 6.9587 10.2083 6.95656 10.2211 6.95443C10.2318 6.95443 10.2446 6.95443 10.2531 6.95443C10.2915 6.95443 10.3149 6.9523 10.3149 6.9523C10.3149 6.9523 10.3363 6.9523 10.3768 6.95017H10.5388C10.6731 6.95443 10.8522 6.96936 11.0292 7.00134C11.2061 7.03332 11.3788 7.08448 11.5046 7.12499C11.5664 7.14844 11.6197 7.16763 11.656 7.18256C11.6922 7.19748 11.7114 7.20601 11.7114 7.20601C11.7114 7.20601 11.7327 7.21454 11.7668 7.22946C11.7754 7.23372 11.786 7.23799 11.7967 7.24225C11.8073 7.24652 11.818 7.25291 11.8308 7.25931C11.8542 7.2721 11.882 7.28489 11.9118 7.29982C12.0312 7.36165 12.1847 7.45119 12.3297 7.55566C12.4747 7.66013 12.6068 7.78165 12.7028 7.87546C12.7497 7.92449 12.7902 7.96287 12.8136 7.99272C12.8392 8.02257 12.8542 8.03962 12.8542 8.03962C12.8542 8.03962 12.8584 8.04389 12.8648 8.05242C12.8712 8.06094 12.8819 8.0716 12.8947 8.08653C12.9181 8.11851 12.9544 8.16115 12.9949 8.21445C13.0759 8.32105 13.1761 8.47029 13.2614 8.62806C13.272 8.64725 13.2827 8.66857 13.2933 8.68775L13.3083 8.7176L13.3232 8.74745C13.3424 8.78796 13.3616 8.82633 13.3786 8.86471C13.3935 8.90309 13.4106 8.94146 13.4255 8.97557C13.4341 8.99263 13.4405 9.00969 13.4447 9.02887C13.4511 9.04593 13.4575 9.06299 13.4618 9.07791C13.4852 9.13974 13.5001 9.19517 13.5129 9.23142C13.5236 9.26979 13.53 9.29111 13.53 9.29111C13.53 9.29111 13.5364 9.31243 13.5449 9.35081C13.5534 9.38918 13.5705 9.44248 13.5812 9.50858C13.5876 9.54056 13.5961 9.5768 13.6025 9.61518C13.6089 9.65355 13.6131 9.69406 13.6195 9.73457C13.6281 9.81772 13.6387 9.90726 13.6409 9.99681C13.6409 10.0181 13.643 10.0416 13.6451 10.0629C13.6451 10.0842 13.6451 10.1077 13.6451 10.129C13.6451 10.1503 13.6451 10.1738 13.6451 10.1951C13.6451 10.2057 13.6451 10.2164 13.6451 10.2271C13.6451 10.2377 13.6451 10.2484 13.6451 10.259C13.643 10.3017 13.6409 10.3422 13.6387 10.3806C13.6345 10.4189 13.6302 10.4552 13.6281 10.4893C13.6238 10.5554 13.611 10.6108 13.6068 10.6513C13.6004 10.6897 13.5982 10.7132 13.5982 10.7132C13.5982 10.7132 13.594 10.7345 13.5854 10.7729C13.5769 10.8112 13.5684 10.8667 13.5492 10.9306C13.5407 10.9626 13.5321 10.9988 13.5215 11.0351C13.5108 11.0713 13.498 11.1097 13.4852 11.1502C13.4831 11.1609 13.4788 11.1694 13.4767 11.1801C13.4724 11.1907 13.4703 11.1993 13.466 11.2099C13.4575 11.2291 13.4511 11.2504 13.4426 11.2717C13.4341 11.2931 13.4277 11.3123 13.4191 11.3336C13.4106 11.3549 13.4021 11.3741 13.3935 11.3954C13.3594 11.4786 13.3189 11.5574 13.2827 11.6321C13.2635 11.6683 13.2422 11.7045 13.2251 11.7365C13.2059 11.7706 13.1867 11.8005 13.1697 11.8282C13.1356 11.8858 13.1015 11.9305 13.0801 11.9625C13.0588 11.9945 13.046 12.0137 13.046 12.0137C13.046 12.0137 13.0332 12.0307 13.0077 12.0627V12.0649Z" fill="#4D4D4D"/>
<path d="M11.4683 12.5908C12.819 12.0363 13.4644 10.4919 12.9099 9.14119C12.3554 7.79052 10.8109 7.14509 9.46026 7.6996C8.10959 8.2541 7.46416 9.79855 8.01867 11.1492C8.57317 12.4999 10.1176 13.1453 11.4683 12.5908Z" stroke="#4D4D4D" stroke-width="1.87" stroke-miterlimit="10"/>
<path d="M20.5098 7.15913C20.4053 7.1037 20.2987 7.05679 20.2987 7.05679C20.2987 7.05679 20.2987 7.0504 20.2987 7.03761C20.2987 7.02481 20.3008 7.00776 20.303 6.98857C20.303 6.96725 20.3072 6.9438 20.3094 6.91822C20.3094 6.89263 20.3094 6.86491 20.3115 6.8372C20.3136 6.78177 20.3115 6.72633 20.3115 6.68583C20.3094 6.64532 20.3072 6.6176 20.3072 6.6176C20.3072 6.6176 20.3072 6.61121 20.3072 6.59841C20.3072 6.58562 20.3072 6.56857 20.303 6.54938C20.2966 6.50887 20.2944 6.45344 20.2838 6.39801C20.2795 6.37029 20.2752 6.34257 20.271 6.31699C20.2667 6.2914 20.2603 6.26795 20.2561 6.24663C20.2518 6.22531 20.2475 6.21039 20.2454 6.1976C20.2433 6.1848 20.2411 6.17841 20.2411 6.17841C20.2411 6.17841 20.3392 6.11658 20.4373 6.05049C20.4863 6.01638 20.5332 5.98226 20.5695 5.95455C20.6057 5.92683 20.6292 5.90978 20.6292 5.90978C20.6292 5.90978 20.6228 5.89059 20.6142 5.86287C20.6057 5.83516 20.5929 5.79678 20.578 5.7584C20.5652 5.72003 20.5503 5.68378 20.5396 5.65607C20.5289 5.62835 20.5204 5.60916 20.5204 5.60916L20.4458 5.61343C20.401 5.61556 20.3435 5.61982 20.2838 5.62622C20.1665 5.63688 20.0514 5.65393 20.0514 5.65393C20.0514 5.65393 20.0407 5.62835 20.0194 5.59211C20.0087 5.57292 19.9981 5.5516 19.9853 5.53028C19.9725 5.50683 19.9576 5.48337 19.9426 5.45992C19.9149 5.41089 19.8829 5.36611 19.8595 5.332C19.8488 5.31495 19.8382 5.30002 19.8296 5.29149C19.8233 5.28083 19.819 5.27657 19.819 5.27657C19.819 5.27657 19.8019 5.25525 19.7785 5.22114C19.7529 5.18916 19.7188 5.14439 19.6804 5.10388C19.6442 5.06337 19.6058 5.02073 19.5759 4.99301C19.5461 4.96316 19.5269 4.94398 19.5269 4.94398C19.5269 4.94398 19.5759 4.83951 19.6207 4.73078C19.6442 4.67534 19.6655 4.61991 19.6804 4.5794C19.6953 4.53676 19.706 4.50905 19.706 4.50905C19.706 4.50905 19.6911 4.49626 19.6676 4.47707C19.6442 4.45788 19.6143 4.4323 19.5823 4.40884C19.5504 4.38539 19.5184 4.36194 19.4949 4.34488C19.4715 4.32783 19.4544 4.31717 19.4544 4.31717C19.4544 4.31717 19.3563 4.38539 19.2647 4.45788C19.2178 4.49412 19.173 4.53037 19.1389 4.56022C19.1048 4.58793 19.0834 4.60712 19.0834 4.60712C19.0834 4.60712 19.06 4.5922 19.0238 4.57301C18.9875 4.55382 18.9385 4.52824 18.8894 4.50265C18.7892 4.45362 18.6869 4.41524 18.6869 4.41524C18.6869 4.41524 18.6613 4.40458 18.6208 4.39179C18.6016 4.38539 18.5782 4.37686 18.5547 4.36833C18.5291 4.35981 18.5035 4.35341 18.4758 4.34488C18.4225 4.32783 18.3692 4.31717 18.3287 4.30651C18.3095 4.30224 18.2925 4.29798 18.2797 4.29585C18.2669 4.29371 18.2605 4.29158 18.2605 4.29158C18.2605 4.29158 18.2456 4.17645 18.2242 4.05919C18.2029 3.94407 18.1752 3.82894 18.1752 3.82894C18.1752 3.82894 18.0963 3.81828 18.0174 3.81188C17.9983 3.81188 17.9769 3.80975 17.9599 3.80762C17.9407 3.80762 17.9236 3.80762 17.9087 3.80762C17.8789 3.80762 17.8597 3.80762 17.8597 3.80762C17.8597 3.80762 17.8149 3.91635 17.7765 4.02935C17.7381 4.14021 17.7062 4.25321 17.7062 4.25321C17.7062 4.25321 17.6998 4.25321 17.687 4.25321C17.6742 4.25321 17.6571 4.25321 17.6358 4.25534C17.6145 4.25534 17.591 4.25747 17.5655 4.2596C17.5399 4.26173 17.5122 4.266 17.4844 4.26813C17.429 4.27239 17.3757 4.28519 17.3331 4.28945C17.2926 4.29798 17.2648 4.30437 17.2648 4.30437C17.2648 4.30437 17.2371 4.30864 17.1966 4.3193C17.1774 4.32356 17.154 4.32996 17.1284 4.33635C17.1028 4.34275 17.0772 4.34915 17.0495 4.35767C17.0239 4.3662 16.9962 4.37473 16.9728 4.38113C16.9493 4.38965 16.9259 4.39818 16.9067 4.40458C16.8875 4.41097 16.8704 4.41737 16.8598 4.42163C16.8491 4.4259 16.8427 4.42803 16.8427 4.42803C16.8427 4.42803 16.7681 4.33849 16.6871 4.25321C16.6466 4.21057 16.6061 4.16793 16.5741 4.13595C16.5421 4.10397 16.5208 4.08478 16.5208 4.08478C16.5208 4.08478 16.5037 4.09331 16.476 4.1061C16.4483 4.11889 16.4142 4.13808 16.3779 4.15513C16.3076 4.19138 16.2393 4.23402 16.2393 4.23402C16.2393 4.23402 16.2457 4.26387 16.2521 4.30651C16.2607 4.34915 16.2735 4.40671 16.2863 4.46428C16.314 4.5794 16.3459 4.69027 16.3459 4.69027C16.3459 4.69027 16.3225 4.70519 16.2905 4.73078C16.2564 4.75636 16.2116 4.78834 16.1711 4.82458C16.1285 4.8587 16.088 4.89707 16.056 4.92479C16.0411 4.93758 16.0283 4.95037 16.0198 4.9589C16.0112 4.96743 16.007 4.97169 16.007 4.97169C16.007 4.97169 15.9878 4.99088 15.9579 5.02073C15.9302 5.05058 15.8918 5.09109 15.8556 5.13373C15.8215 5.17637 15.7852 5.21901 15.7618 5.25312C15.7362 5.28723 15.7213 5.30855 15.7213 5.30855C15.7213 5.30855 15.6936 5.30002 15.6509 5.28723C15.6083 5.27444 15.5528 5.25951 15.4953 5.24459C15.3823 5.21474 15.2629 5.19129 15.2629 5.19129C15.2629 5.19129 15.2522 5.20835 15.2373 5.23393C15.2224 5.25951 15.2011 5.29363 15.1819 5.32774C15.1627 5.36398 15.1456 5.39809 15.1307 5.42368C15.1179 5.44926 15.1073 5.46845 15.1073 5.46845C15.1073 5.46845 15.1883 5.55586 15.2736 5.63688C15.3162 5.67739 15.3588 5.7179 15.3908 5.74561C15.4249 5.77546 15.4462 5.79465 15.4462 5.79465C15.4462 5.79465 15.4356 5.82023 15.4207 5.85861C15.4036 5.89698 15.3887 5.95028 15.3695 6.00145C15.3524 6.05475 15.3375 6.10805 15.3269 6.14856C15.3183 6.18907 15.3119 6.21678 15.3119 6.21678C15.3119 6.21678 15.3119 6.22318 15.3077 6.23597C15.3055 6.24876 15.3013 6.26369 15.297 6.28501C15.2906 6.32552 15.2778 6.38095 15.2714 6.43425C15.2629 6.48968 15.2586 6.54511 15.2565 6.58562C15.2522 6.62613 15.2522 6.65385 15.2522 6.65385C15.2522 6.65385 15.1392 6.68369 15.0284 6.72207C14.9708 6.74126 14.9175 6.76045 14.8749 6.7775C14.8344 6.79456 14.8066 6.80522 14.8066 6.80522C14.8066 6.80522 14.8066 6.8841 14.813 6.96512C14.8152 7.00563 14.8173 7.044 14.8216 7.07385C14.8258 7.1037 14.828 7.12289 14.828 7.12289C14.828 7.12289 14.8557 7.12928 14.9004 7.13994C14.9431 7.1506 15.0007 7.1634 15.0603 7.17406C15.1755 7.19751 15.2906 7.21243 15.2906 7.21243C15.2906 7.21243 15.2906 7.21883 15.2927 7.23162C15.2949 7.24441 15.2991 7.26147 15.3034 7.28066C15.3077 7.30198 15.3119 7.32543 15.3183 7.35101C15.3247 7.3766 15.3311 7.40218 15.3396 7.4299C15.346 7.45761 15.3546 7.4832 15.361 7.50878C15.3695 7.53437 15.3759 7.55569 15.3823 7.57701C15.3951 7.61538 15.4057 7.6431 15.4057 7.6431C15.4057 7.6431 15.4164 7.66868 15.4292 7.70706C15.4462 7.74543 15.4654 7.7966 15.4889 7.84777C15.5017 7.87335 15.5123 7.89681 15.523 7.92026C15.5358 7.94371 15.5464 7.96503 15.5571 7.98209C15.5678 8.00127 15.5742 8.0162 15.5806 8.02686C15.587 8.03752 15.5912 8.04391 15.5912 8.04391C15.5912 8.04391 15.5145 8.12919 15.4398 8.223C15.3652 8.31468 15.297 8.41062 15.297 8.41062C15.297 8.41062 15.3077 8.42768 15.3247 8.45113C15.3332 8.46392 15.3418 8.47884 15.3524 8.49377C15.3631 8.50869 15.3759 8.52575 15.3865 8.54067C15.4335 8.60463 15.4846 8.66646 15.4846 8.66646C15.4846 8.66646 15.5976 8.63022 15.7063 8.58544C15.8172 8.5428 15.9217 8.49377 15.9217 8.49377C15.9217 8.49377 15.9259 8.49803 15.9345 8.50869C15.943 8.51722 15.9537 8.53001 15.9686 8.54494C15.9984 8.57478 16.0368 8.61316 16.0794 8.6494C16.1008 8.66859 16.12 8.68778 16.1413 8.7027C16.1605 8.71976 16.1797 8.73468 16.1967 8.74748C16.2287 8.77519 16.2521 8.79012 16.2521 8.79012C16.2521 8.79012 16.3396 8.85621 16.4334 8.9159C16.4803 8.94362 16.5293 8.97347 16.5655 8.99266C16.6018 9.01185 16.6274 9.02464 16.6274 9.02464C16.6274 9.02464 16.6231 9.05449 16.6167 9.09713C16.6103 9.1419 16.6018 9.19946 16.5975 9.25703C16.5847 9.37429 16.5783 9.49368 16.5783 9.49368C16.5783 9.49368 16.5954 9.50221 16.6231 9.51287C16.6508 9.52353 16.6871 9.53845 16.7254 9.55338C16.7617 9.5683 16.8001 9.58109 16.8278 9.58962C16.8555 9.60028 16.8747 9.60668 16.8747 9.60668C16.8747 9.60668 16.8939 9.58322 16.9216 9.54911C16.9493 9.51287 16.9856 9.46596 17.0197 9.41906C17.0879 9.32312 17.1518 9.22505 17.1518 9.22505C17.1518 9.22505 17.1796 9.23144 17.2201 9.23997C17.2606 9.25063 17.3139 9.25916 17.3693 9.26982C17.4247 9.28048 17.478 9.28474 17.5207 9.29114C17.5612 9.2954 17.5889 9.29753 17.5889 9.29753C17.5889 9.29753 17.5953 9.29753 17.6081 9.29753C17.6209 9.29753 17.6379 9.29967 17.6571 9.3018C17.6976 9.3018 17.7531 9.30606 17.8085 9.30393C17.8362 9.30393 17.8639 9.30393 17.8895 9.30393C17.9151 9.30393 17.9386 9.3018 17.9599 9.29967C18.0004 9.29967 18.0281 9.29327 18.0281 9.29327C18.0281 9.29327 18.075 9.39987 18.1283 9.50647C18.1539 9.55977 18.1816 9.61094 18.2051 9.64932C18.2264 9.68769 18.2413 9.71328 18.2413 9.71328C18.2413 9.71328 18.2605 9.71114 18.2903 9.70475C18.3202 9.70048 18.3586 9.69196 18.3969 9.68343C18.4353 9.6749 18.4758 9.66637 18.5035 9.65998C18.5334 9.65145 18.5526 9.64718 18.5526 9.64718C18.5526 9.64718 18.5547 9.61734 18.559 9.57256C18.5632 9.52779 18.5675 9.47023 18.5696 9.41053C18.576 9.29114 18.576 9.17601 18.576 9.17601C18.576 9.17601 18.5824 9.17601 18.5952 9.16961C18.6059 9.16535 18.6229 9.15895 18.6421 9.15256C18.6613 9.14616 18.6848 9.13763 18.7082 9.12911C18.7317 9.11845 18.7572 9.10779 18.7828 9.09713C18.834 9.07581 18.883 9.05022 18.9214 9.03317C18.9406 9.02464 18.9555 9.01611 18.9662 9.00971C18.9768 9.00332 18.9832 9.00119 18.9832 9.00119C18.9832 9.00119 19.0067 8.98839 19.0451 8.96921C19.0813 8.94789 19.1282 8.92017 19.1751 8.88819C19.1986 8.87326 19.222 8.85834 19.2433 8.84342C19.2647 8.82849 19.2839 8.81357 19.3009 8.80078C19.318 8.78798 19.3308 8.77732 19.3414 8.77093C19.3521 8.76453 19.3563 8.76027 19.3563 8.76027C19.3563 8.76027 19.4523 8.82423 19.5546 8.88392C19.657 8.94575 19.7614 8.99905 19.7614 8.99905C19.7614 8.99905 19.7763 8.98626 19.7977 8.96494C19.819 8.94575 19.8488 8.91804 19.8766 8.89032C19.9043 8.86261 19.9341 8.83489 19.9533 8.81144L19.9874 8.77519C19.9874 8.77519 19.9341 8.66859 19.8766 8.56626C19.8169 8.46392 19.7529 8.36585 19.7529 8.36585C19.7529 8.36585 19.7572 8.35945 19.7657 8.35092C19.7721 8.34026 19.7849 8.32747 19.7977 8.31255C19.8105 8.29549 19.8233 8.2763 19.8403 8.25498C19.8552 8.23366 19.8723 8.21234 19.8872 8.18889C19.9021 8.16544 19.9171 8.14199 19.932 8.12067C19.9469 8.09935 19.9576 8.07803 19.9682 8.05884C19.9896 8.02259 20.0023 7.99914 20.0023 7.99914C20.0023 7.99914 20.0151 7.97356 20.0343 7.93731C20.0429 7.91813 20.0556 7.89681 20.0663 7.87335C20.077 7.8499 20.0898 7.82432 20.1004 7.79873C20.1132 7.77315 20.1239 7.74757 20.1324 7.72411C20.1431 7.70066 20.1516 7.67721 20.158 7.65802C20.1665 7.63883 20.1708 7.62178 20.175 7.61112C20.1793 7.60046 20.1814 7.59406 20.1814 7.59406C20.1814 7.59406 20.2987 7.59619 20.416 7.59406C20.5332 7.5898 20.6526 7.57914 20.6526 7.57914C20.6526 7.57914 20.659 7.55995 20.6654 7.5301C20.6739 7.50025 20.6825 7.46188 20.691 7.4235C20.7016 7.38512 20.708 7.34462 20.7123 7.3169C20.7187 7.28705 20.7208 7.26786 20.7208 7.26786C20.7208 7.26786 20.6185 7.20817 20.514 7.15274L20.5098 7.15913ZM17.7595 8.46392C16.8193 8.46392 16.0539 7.69853 16.0539 6.75831C16.0539 5.8181 16.8193 5.05271 17.7595 5.05271C18.6997 5.05271 19.4651 5.8181 19.4651 6.75831C19.4651 7.69853 18.6997 8.46392 17.7595 8.46392Z" fill="#4D4D4D"/>
</g>
<defs>
<clipPath id="clip0_51_16137">
<rect width="26.4049" height="24" fill="white"/>
</clipPath>
</defs>
</svg>
